<?xml version="1.0" standalone="no"?>
<!DOCTYPE svg PUBLIC "-//W3C//DTD SVG 20010904//EN"
 "http://www.w3.org/TR/2001/REC-SVG-20010904/DTD/svg10.dtd">
<svg version="1.0" xmlns="http://www.w3.org/2000/svg"
 width="488.000000pt" height="62.000000pt" viewBox="0 0 488.000000 62.000000"
 preserveAspectRatio="xMidYMid meet">

<g transform="translate(0.000000,62.000000) scale(0.100000,-0.100000)"
fill="#000000" stroke="none">
<path d="M1917 544 c-3 -3 -23 -12 -44 -19 -32 -11 -38 -17 -35 -39 2 -16 -9
-48 -27 -80 -49 -85 -54 -86 -97 -22 -30 46 -35 58 -24 71 11 13 6 15 -40 15
l-52 0 25 -30 c14 -16 41 -56 61 -88 41 -67 48 -132 19 -164 -15 -17 -14 -18
37 -18 42 0 51 3 42 12 -7 7 -12 37 -12 66 0 50 6 64 61 153 33 55 65 101 70
105 5 3 14 14 19 25 10 19 9 25 -3 13z"/>
<path d="M171 456 c-22 -8 -31 -15 -23 -20 7 -4 12 -31 12 -65 0 -52 -3 -60
-22 -66 l-23 -8 24 -4 c19 -4 21 -7 10 -14 -10 -6 -10 -9 -1 -9 18 0 15 -60
-5 -82 -15 -17 -14 -18 32 -18 38 0 46 3 37 12 -13 13 -17 118 -4 118 4 0 16
3 28 6 25 7 49 -35 65 -119 l11 -55 32 17 c17 9 33 17 35 18 2 1 -9 16 -23 34
-26 31 -70 109 -64 113 2 1 15 10 30 19 113 71 -13 173 -151 123z m130 -27
c38 -38 4 -91 -68 -105 l-33 -6 0 66 0 66 40 0 c27 0 47 -7 61 -21z"/>
<path d="M221 436 c2 -2 22 -6 44 -9 27 -4 35 -3 25 3 -14 9 -79 15 -69 6z"/>
<path d="M484 451 c-54 -33 -79 -127 -50 -194 43 -101 175 -116 222 -24 23 44
23 134 -1 174 -36 61 -111 81 -171 44z m111 -21 c40 -44 38 -181 -3 -222 -16
-16 -28 -19 -56 -14 -41 8 -54 26 -62 90 -8 58 1 107 27 140 25 32 68 35 94 6z"/>
<path d="M517 422 c-10 -10 -17 -23 -17 -28 0 -4 7 2 16 15 12 17 24 22 45 19
15 -3 26 -1 23 4 -9 15 -51 8 -67 -10z"/>
<path d="M492 355 c0 -16 2 -22 5 -12 2 9 2 23 0 30 -3 6 -5 -1 -5 -18z"/>
<path d="M492 270 c0 -14 2 -19 5 -12 2 6 2 18 0 25 -3 6 -5 1 -5 -13z"/>
<path d="M811 441 c-24 -34 -26 -41 -8 -41 12 0 57 51 57 65 0 16 -32 1 -49
-24z"/>
<path d="M928 458 c17 -17 17 -259 0 -276 -9 -9 14 -12 105 -12 l116 0 -17 33
c-9 17 -18 33 -18 35 -1 2 -13 -8 -27 -22 -15 -14 -38 -26 -52 -26 l-25 0 0
124 c0 74 4 127 10 131 22 13 -3 25 -53 25 -40 0 -48 -3 -39 -12z m84 -11 c-7
-8 -13 -67 -15 -138 l-3 -124 -2 131 c-1 72 1 134 5 137 12 13 26 7 15 -6z"/>
<path d="M1189 456 c8 -9 11 -56 9 -142 -3 -115 -5 -129 -20 -128 -10 1 -15
-2 -12 -8 3 -5 33 -8 65 -7 41 2 56 6 49 13 -13 13 -13 253 0 261 21 13 -3 25
-52 25 -42 0 -49 -2 -39 -14z m82 -10 c-8 -10 -11 -54 -9 -139 2 -69 0 -123
-4 -120 -13 8 -9 248 4 261 17 17 23 15 9 -2z"/>
<path d="M1338 458 c8 -8 12 -52 12 -132 0 -97 -3 -123 -17 -138 -15 -17 -14
-18 32 -18 45 0 47 1 29 14 -16 12 -19 29 -22 123 -2 59 0 105 4 100 4 -4 33
-58 65 -120 42 -83 63 -113 78 -115 20 -3 21 0 21 127 0 118 2 133 20 151 l20
20 -46 0 c-42 0 -44 -1 -29 -16 12 -13 15 -36 14 -116 -1 -113 1 -113 -65 15
-36 70 -43 92 -33 103 10 12 3 14 -42 14 -41 0 -50 -3 -41 -12z"/>
<path d="M2058 458 c8 -8 12 -53 12 -134 0 -116 -1 -124 -22 -138 -22 -15 -21
-16 25 -16 44 0 47 1 33 16 -13 12 -16 38 -16 117 l1 102 30 -85 c17 -47 36
-100 42 -117 6 -18 14 -33 18 -33 4 0 26 52 49 115 23 63 43 115 44 115 1 0 3
-43 4 -96 2 -79 0 -100 -14 -115 -17 -18 -15 -19 42 -21 l59 -1 -55 -7 -55 -7
63 -1 c65 -2 75 10 26 28 -24 9 -24 12 -24 131 0 100 3 126 17 141 15 17 14
18 -42 18 -46 0 -56 -3 -47 -12 18 -18 15 -34 -22 -128 l-33 -84 -33 98 c-31
95 -32 100 -14 113 16 11 11 13 -41 13 -46 0 -56 -3 -47 -12z"/>
<path d="M2408 458 c17 -17 17 -259 0 -277 -11 -10 -2 -12 45 -10 39 2 54 6
47 13 -13 13 -13 253 0 261 22 13 -3 25 -53 25 -40 0 -48 -3 -39 -12z m83 -12
c-8 -10 -11 -54 -9 -139 2 -69 0 -123 -4 -120 -13 8 -9 248 4 261 17 17 23 15
9 -2z"/>
<path d="M2835 459 c-32 -18 -45 -40 -45 -74 0 -17 6 -37 13 -44 6 -6 12 -17
12 -24 0 -7 8 -11 18 -9 10 2 42 -4 72 -13 50 -14 75 -36 75 -64 0 -21 -41
-51 -69 -51 -37 0 -62 9 -56 20 3 5 0 12 -6 16 -8 4 -9 3 -5 -4 4 -7 3 -12 -2
-12 -5 0 -14 12 -21 28 l-13 27 -18 -35 -18 -35 31 -4 32 -4 -30 -8 c-26 -7
-25 -8 13 -6 23 2 42 -1 42 -5 0 -11 74 -10 103 1 27 10 67 49 67 64 0 5 -8 1
-17 -10 -10 -10 -15 -14 -10 -9 4 6 7 26 7 46 0 47 -28 73 -101 94 -31 9 -62
22 -68 30 -16 19 -11 58 8 64 9 3 11 0 6 -8 -5 -9 -4 -11 4 -6 6 4 8 12 5 18
-4 6 2 8 17 3 36 -10 69 -27 69 -37 0 -4 4 -8 8 -8 9 0 35 50 30 56 -11 10
-136 13 -153 3z"/>
<path d="M3114 451 c-54 -33 -79 -127 -50 -194 43 -101 175 -116 222 -24 23
44 23 134 -1 174 -36 61 -111 81 -171 44z m111 -21 c40 -44 38 -181 -3 -222
-16 -16 -28 -19 -56 -14 -41 8 -54 26 -62 90 -8 58 1 107 27 140 25 32 68 35
94 6z"/>
<path d="M3147 422 c-10 -10 -17 -23 -17 -28 0 -4 7 2 16 15 12 17 24 22 45
19 15 -3 26 -1 23 4 -9 15 -51 8 -67 -10z"/>
<path d="M3122 355 c0 -16 2 -22 5 -12 2 9 2 23 0 30 -3 6 -5 -1 -5 -18z"/>
<path d="M3122 270 c0 -14 2 -19 5 -12 2 6 2 18 0 25 -3 6 -5 1 -5 -13z"/>
<path d="M3563 456 c12 -10 17 -27 17 -64 0 -42 -3 -52 -20 -57 -27 -9 -25
-24 3 -18 21 4 21 4 -3 -12 -23 -15 -24 -15 -2 -10 21 6 22 3 22 -46 0 -38 -5
-55 -17 -65 -15 -11 1 -13 109 -14 l127 0 -20 34 -20 34 -24 -24 c-15 -15 -36
-24 -55 -24 -30 0 -30 0 -30 54 0 49 2 55 23 59 19 4 19 4 -5 6 -26 1 -27 -1
-31 -61 l-3 -63 -2 68 c-2 66 -2 67 25 67 14 0 35 -7 45 -17 17 -15 18 -14 18
27 0 41 -1 42 -18 27 -34 -31 -52 -22 -52 27 0 43 1 45 33 49 32 4 32 4 -5 5
l-37 2 -4 -52 -3 -53 -2 58 -2 57 40 0 c27 0 47 -7 61 -21 11 -11 22 -19 23
-17 1 2 10 15 19 31 l17 27 -122 0 c-104 -1 -120 -3 -105 -14z"/>
<path d="M3891 456 c-22 -8 -31 -15 -23 -20 7 -4 12 -31 12 -65 0 -52 -3 -60
-22 -66 l-23 -8 24 -4 c19 -4 21 -7 10 -14 -10 -6 -10 -9 -1 -9 18 0 15 -60
-5 -82 -15 -17 -14 -18 32 -18 38 0 46 3 37 12 -13 13 -17 118 -4 118 4 0 16
3 28 6 25 7 49 -35 65 -119 l11 -55 32 17 c17 9 33 17 35 18 2 1 -9 16 -23 34
-26 31 -70 109 -64 113 2 1 15 10 30 19 113 71 -13 173 -151 123z m130 -27
c38 -38 4 -91 -68 -105 l-33 -6 0 66 0 66 40 0 c27 0 47 -7 61 -21z"/>
<path d="M3941 436 c2 -2 22 -6 44 -9 27 -4 35 -3 25 3 -14 9 -79 15 -69 6z"/>
<path d="M4158 458 c8 -8 12 -52 12 -133 0 -109 -2 -124 -20 -140 -32 -29 -24
-35 48 -33 l67 1 -65 7 c-63 6 -63 7 -16 8 46 2 48 3 30 16 -16 12 -19 29 -22
123 -2 59 0 105 4 100 4 -4 33 -58 65 -120 42 -83 63 -113 78 -115 20 -3 21 0
21 127 0 118 2 133 20 151 l20 20 -46 0 c-42 0 -44 -1 -29 -16 12 -13 15 -36
14 -116 -1 -113 1 -113 -65 15 -36 70 -43 92 -33 103 10 12 3 14 -42 14 -41 0
-50 -3 -41 -12z"/>
<path d="M4453 456 c12 -10 17 -27 17 -64 0 -42 -3 -52 -20 -57 -27 -9 -25
-24 3 -18 21 4 21 4 -3 -12 -23 -15 -24 -15 -2 -10 21 6 22 3 22 -46 0 -38 -5
-55 -17 -65 -15 -11 1 -13 109 -14 l127 0 -20 34 -20 34 -24 -24 c-15 -15 -36
-24 -55 -24 -30 0 -30 0 -30 54 0 49 2 55 23 59 19 4 19 4 -5 6 -26 1 -27 -1
-31 -61 l-3 -63 -2 68 c-2 66 -2 67 25 67 14 0 35 -7 45 -17 17 -15 18 -14 18
27 0 41 -1 42 -18 27 -34 -31 -52 -22 -52 27 0 43 1 45 33 49 32 4 32 4 -5 5
l-37 2 -4 -52 -3 -53 -2 58 -2 57 40 0 c27 0 47 -7 61 -21 11 -11 22 -19 23
-17 1 2 10 15 19 31 l17 27 -122 0 c-104 -1 -120 -3 -105 -14z"/>
<path d="M1705 449 c-4 -6 -5 -12 -2 -15 2 -3 7 2 10 11 7 17 1 20 -8 4z"/>
<path d="M3417 447 c-3 -8 -2 -20 3 -27 11 -18 42 -4 38 17 -4 22 -34 29 -41
10z"/>
<path d="M762 354 c-17 -12 -22 -24 -20 -47 3 -27 11 -36 51 -56 31 -15 47
-29 47 -42 0 -24 -43 -35 -76 -20 -32 14 -34 14 -34 -4 0 -40 89 -47 125 -10
41 40 30 68 -37 100 -29 14 -43 27 -43 40 0 17 7 20 48 19 30 0 47 4 47 12 0
27 -73 33 -108 8z"/>
<path d="M2603 358 c-24 -12 -53 -64 -53 -97 0 -65 45 -111 107 -111 26 0 26
0 7 -21 -14 -15 -16 -24 -7 -37 12 -20 74 -23 81 -4 2 7 -6 12 -22 12 -33 0
-33 20 -1 50 29 28 34 56 8 45 -47 -19 -91 -17 -112 4 -40 40 -29 51 53 51 41
0 77 4 80 8 10 16 -15 81 -37 97 -25 17 -72 19 -104 3z m91 -40 c9 -12 16 -26
16 -30 0 -5 -27 -8 -60 -8 -64 0 -72 8 -40 40 27 27 65 26 84 -2z"/>
<path d="M3367 364 c-14 -14 6 -24 49 -24 24 0 44 -2 44 -5 0 -3 -22 -39 -50
-80 -68 -101 -67 -105 25 -105 60 0 75 3 75 15 0 11 -12 15 -51 15 -60 0 -60
1 1 90 22 32 40 68 40 79 0 19 -6 21 -63 21 -35 0 -67 -3 -70 -6z"/>
<path d="M693 315 c0 -22 2 -30 4 -17 2 12 2 30 0 40 -3 9 -5 -1 -4 -23z"/>
<path d="M3323 315 c0 -22 2 -30 4 -17 2 12 2 30 0 40 -3 9 -5 -1 -4 -23z"/>
<path d="M315 309 c-4 -6 -5 -12 -2 -15 2 -3 7 2 10 11 7 17 1 20 -8 4z"/>
<path d="M4035 309 c-4 -6 -5 -12 -2 -15 2 -3 7 2 10 11 7 17 1 20 -8 4z"/>
<path d="M1783 250 c0 -30 2 -43 4 -27 2 15 2 39 0 55 -2 15 -4 2 -4 -28z"/>
<path d="M2848 293 c7 -3 16 -2 19 1 4 3 -2 6 -13 5 -11 0 -14 -3 -6 -6z"/>
<path d="M2888 283 c7 -3 16 -2 19 1 4 3 -2 6 -13 5 -11 0 -14 -3 -6 -6z"/>
<path d="M660 210 c-14 -25 -45 -42 -95 -51 l-40 -6 35 -2 c39 -1 93 27 110
58 6 12 8 21 6 21 -3 0 -10 -9 -16 -20z"/>
<path d="M3290 210 c-14 -25 -45 -42 -95 -51 l-40 -6 35 -2 c39 -1 93 27 110
58 6 12 8 21 6 21 -3 0 -10 -9 -16 -20z"/>
<path d="M2192 164 c-7 -8 -8 -14 -3 -14 10 0 25 19 20 25 -2 1 -10 -3 -17
-11z"/>
<path d="M3690 160 l-135 -6 132 -2 c79 -1 134 2 138 8 3 6 5 9 3 8 -2 -1 -64
-5 -138 -8z"/>
<path d="M4580 160 l-135 -6 132 -2 c79 -1 134 2 138 8 3 6 5 9 3 8 -2 -1 -64
-5 -138 -8z"/>
<path d="M168 153 c17 -2 47 -2 65 0 17 2 3 4 -33 4 -36 0 -50 -2 -32 -4z"/>
<path d="M983 153 c37 -2 96 -2 130 0 34 2 4 3 -68 3 -71 0 -99 -1 -62 -3z"/>
<path d="M1208 153 c17 -2 47 -2 65 0 17 2 3 4 -33 4 -36 0 -50 -2 -32 -4z"/>
<path d="M1337 153 c18 -2 50 -2 70 0 21 2 7 4 -32 4 -38 0 -55 -2 -38 -4z"/>
<path d="M1523 153 c9 -2 23 -2 30 0 6 3 -1 5 -18 5 -16 0 -22 -2 -12 -5z"/>
<path d="M1713 153 c20 -2 54 -2 75 0 20 2 3 4 -38 4 -41 0 -58 -2 -37 -4z"/>
<path d="M2058 153 c18 -2 45 -2 60 0 15 2 0 4 -33 4 -33 0 -45 -2 -27 -4z"/>
<path d="M2428 153 c17 -2 47 -2 65 0 17 2 3 4 -33 4 -36 0 -50 -2 -32 -4z"/>
<path d="M3888 153 c17 -2 47 -2 65 0 17 2 3 4 -33 4 -36 0 -50 -2 -32 -4z"/>
<path d="M4343 153 c9 -2 23 -2 30 0 6 3 -1 5 -18 5 -16 0 -22 -2 -12 -5z"/>
</g>
</svg>
