<?xml version="1.0" standalone="no"?>
<!DOCTYPE svg PUBLIC "-//W3C//DTD SVG 20010904//EN"
 "http://www.w3.org/TR/2001/REC-SVG-20010904/DTD/svg10.dtd">
<svg version="1.0" xmlns="http://www.w3.org/2000/svg"
 width="578.000000pt" height="60.000000pt" viewBox="0 0 578.000000 60.000000"
 preserveAspectRatio="xMidYMid meet">

<g transform="translate(0.000000,60.000000) scale(0.100000,-0.100000)"
fill="#000000" stroke="none">
<path d="M5629 506 c-41 -19 -46 -25 -37 -41 11 -19 -11 -136 -37 -198 -12
-29 -13 -26 -41 77 -16 58 -33 106 -40 106 -6 0 -24 -47 -39 -106 -15 -58 -31
-101 -35 -97 -4 4 -17 45 -30 90 -18 67 -20 86 -10 98 11 13 6 15 -41 15 -48
-1 -52 -2 -36 -14 11 -9 31 -61 53 -138 31 -114 33 -124 17 -135 -14 -11 -8
-13 37 -13 51 0 52 1 37 18 -15 17 -15 24 4 93 12 40 24 78 28 82 5 4 18 -30
31 -77 19 -71 21 -88 10 -101 -12 -14 -7 -16 43 -14 46 2 55 5 46 16 -14 16
-23 17 -13 1 4 -7 3 -8 -4 -4 -17 11 -15 37 13 134 34 122 51 169 75 203 12
16 20 29 18 28 -2 0 -24 -11 -49 -23z"/>
<path d="M3084 450 c-53 -21 -91 -109 -80 -184 8 -49 55 -116 83 -116 8 0 12
-4 9 -8 -5 -9 64 0 99 12 20 8 20 7 1 -8 -11 -9 -36 -17 -55 -17 -32 -2 -33
-2 -7 -6 36 -6 78 12 95 40 13 20 13 21 -2 8 -10 -8 -17 -9 -17 -3 0 6 5 14
10 17 6 3 10 21 9 38 l-1 32 -11 -33 c-6 -19 -21 -40 -33 -49 -27 -17 -80 -14
-76 5 1 8 -2 11 -7 7 -23 -13 -45 47 -45 121 0 81 21 126 63 132 30 5 69 -23
77 -55 7 -26 7 -26 25 12 11 21 18 39 16 40 -1 0 -23 6 -50 13 -54 14 -73 14
-103 2z"/>
<path d="M93 430 c-39 -23 -59 -54 -68 -101 -9 -51 9 -110 45 -144 30 -29 35
-30 138 -33 105 -3 107 -2 84 16 -20 15 -23 25 -20 72 2 36 7 55 16 55 6 0 13
5 15 10 1 6 -32 11 -81 13 -45 2 -80 7 -77 12 3 5 0 12 -6 16 -16 9 -30 -18
-17 -33 6 -7 34 -14 62 -15 l51 -1 -55 -7 -55 -7 53 -1 52 -2 0 -56 0 -57 -51
5 c-62 6 -88 30 -99 90 -17 90 25 168 91 168 32 0 69 -30 69 -57 1 -11 8 -5
19 17 l19 35 -51 12 c-73 17 -97 16 -134 -7z"/>
<path d="M469 436 c17 -21 -6 -99 -27 -91 -13 5 -13 3 -1 -12 12 -15 12 -16
-5 -10 -26 10 -40 -13 -18 -29 15 -11 14 -15 -3 -55 -11 -24 -31 -54 -44 -66
l-24 -23 52 0 c49 0 51 1 40 21 -11 22 -5 84 11 94 5 3 19 -8 31 -25 l23 -30
24 27 c15 18 22 22 18 10 -3 -11 -2 -16 4 -12 17 10 33 -47 20 -68 -10 -17 -6
-18 49 -16 l59 2 -16 23 c-9 12 -19 20 -21 18 -2 -2 2 -12 10 -21 12 -16 11
-17 -3 -3 -9 8 -26 39 -38 68 -20 52 -20 54 -1 59 12 3 17 11 14 24 -4 15 -9
17 -24 8 -15 -8 -21 -6 -26 8 -3 10 -12 33 -20 52 -10 25 -10 37 -2 47 9 12 2
14 -41 14 -44 0 -51 -2 -41 -14z m61 -114 c17 -44 0 -65 -31 -36 -12 10 -24
18 -28 17 -9 -4 -7 7 8 50 12 35 14 37 25 20 7 -10 18 -33 26 -51z m-20 -64
c0 -6 -7 -5 -15 2 -8 7 -15 17 -15 22 0 6 7 5 15 -2 8 -7 15 -17 15 -22z"/>
<path d="M728 438 c17 -17 17 -259 0 -276 -9 -9 14 -12 105 -12 l116 0 -17 33
c-9 17 -18 33 -18 35 -1 2 -13 -8 -27 -22 -15 -14 -38 -26 -52 -26 l-25 0 0
124 c0 74 4 127 10 131 22 13 -3 25 -53 25 -40 0 -48 -3 -39 -12z m84 -11 c-7
-8 -13 -67 -15 -138 l-3 -124 -2 131 c-1 72 1 134 5 137 12 13 26 7 15 -6z"/>
<path d="M993 436 c12 -10 17 -27 17 -64 0 -42 -3 -52 -20 -57 -27 -9 -25 -24
3 -18 21 4 21 4 -3 -12 -23 -15 -24 -15 -2 -10 21 6 22 4 22 -48 0 -55 -16
-77 -42 -60 -7 3 -8 1 -4 -5 5 -8 49 -12 136 -12 l129 0 -20 34 -20 34 -24
-24 c-15 -15 -36 -24 -55 -24 -30 0 -30 0 -30 54 0 49 2 55 23 59 19 4 19 4
-5 6 -26 1 -27 -1 -31 -61 l-3 -63 -2 68 c-2 66 -2 67 25 67 14 0 35 -7 45
-17 17 -15 18 -14 18 27 0 41 -1 42 -18 27 -34 -31 -52 -22 -52 27 0 43 1 45
33 49 32 4 32 4 -5 5 l-37 2 -4 -52 -3 -53 -2 58 -2 57 40 0 c27 0 47 -7 61
-21 11 -11 22 -19 23 -17 1 2 10 15 19 31 l17 27 -122 0 c-104 -1 -120 -3
-105 -14z"/>
<path d="M1321 436 c-22 -8 -31 -15 -23 -20 7 -4 12 -31 12 -65 0 -52 -3 -60
-22 -66 l-23 -8 24 -4 c19 -4 21 -7 10 -14 -10 -6 -10 -9 -1 -9 18 0 15 -60
-5 -82 -15 -17 -14 -18 32 -18 38 0 46 3 37 12 -13 13 -17 118 -4 118 4 0 16
3 28 6 25 7 49 -35 65 -119 l11 -55 32 17 c17 9 33 17 35 18 2 1 -9 16 -23 34
-26 31 -70 109 -64 113 2 1 15 10 30 19 113 71 -13 173 -151 123z m130 -27
c38 -38 4 -91 -68 -105 l-33 -6 0 66 0 66 40 0 c27 0 47 -7 61 -21z"/>
<path d="M1371 416 c2 -2 22 -6 44 -9 27 -4 35 -3 25 3 -14 9 -79 15 -69 6z"/>
<path d="M1588 438 c17 -17 17 -259 0 -277 -11 -10 -2 -12 45 -10 39 2 54 6
47 13 -13 13 -13 253 0 261 22 13 -3 25 -53 25 -40 0 -48 -3 -39 -12z m83 -12
c-8 -10 -11 -54 -9 -139 2 -69 0 -123 -4 -120 -13 8 -9 248 4 261 17 17 23 15
9 -2z"/>
<path d="M1839 436 c17 -21 -6 -99 -27 -91 -13 5 -13 3 -1 -12 12 -15 12 -16
-5 -10 -26 10 -40 -13 -18 -29 15 -11 14 -15 -3 -55 -11 -24 -31 -54 -44 -66
l-24 -23 52 0 c49 0 51 1 40 21 -11 22 -5 84 11 94 5 3 19 -8 31 -25 l23 -30
24 27 c15 18 22 22 18 10 -3 -11 -2 -16 4 -12 17 10 33 -47 20 -68 -10 -17 -6
-18 49 -16 l59 2 -16 23 c-9 12 -19 20 -21 18 -2 -2 2 -12 10 -21 12 -16 11
-17 -3 -3 -9 8 -26 39 -38 68 -20 52 -20 54 -1 59 12 3 17 11 14 24 -4 15 -9
17 -24 8 -15 -8 -21 -6 -26 8 -3 10 -12 33 -20 52 -10 25 -10 37 -2 47 9 12 2
14 -41 14 -44 0 -51 -2 -41 -14z m61 -114 c17 -44 0 -65 -31 -36 -12 10 -24
18 -28 17 -9 -4 -7 7 8 50 12 35 14 37 25 20 7 -10 18 -33 26 -51z m-20 -64
c0 -6 -7 -5 -15 2 -8 7 -15 17 -15 22 0 6 7 5 15 -2 8 -7 15 -17 15 -22z"/>
<path d="M2218 438 c8 -8 12 -53 12 -134 0 -116 -1 -124 -22 -138 -22 -15 -21
-16 25 -16 44 0 47 1 33 16 -13 12 -16 38 -16 117 l1 102 30 -85 c17 -47 36
-100 42 -117 6 -18 14 -33 18 -33 4 0 26 52 49 115 23 63 43 115 44 115 1 0 3
-43 4 -96 2 -79 0 -100 -14 -115 -17 -18 -15 -19 42 -21 l59 -1 -55 -7 -55 -7
63 -1 c65 -2 75 10 26 28 -24 9 -24 12 -24 131 0 100 3 126 17 141 15 17 14
18 -42 18 -46 0 -56 -3 -47 -12 18 -18 15 -34 -22 -128 l-33 -84 -33 98 c-31
95 -32 100 -14 113 16 11 11 13 -41 13 -46 0 -56 -3 -47 -12z"/>
<path d="M2614 431 c-54 -33 -79 -127 -50 -194 43 -101 175 -116 222 -24 23
44 23 134 -1 174 -36 61 -111 81 -171 44z m111 -21 c40 -44 38 -181 -3 -222
-16 -16 -28 -19 -56 -14 -41 8 -54 26 -62 90 -8 58 1 107 27 140 25 32 68 35
94 6z"/>
<path d="M2647 402 c-10 -10 -17 -23 -17 -28 0 -4 7 2 16 15 12 17 24 22 45
19 15 -3 26 -1 23 4 -9 15 -51 8 -67 -10z"/>
<path d="M2622 335 c0 -16 2 -22 5 -12 2 9 2 23 0 30 -3 6 -5 -1 -5 -18z"/>
<path d="M2622 250 c0 -14 2 -19 5 -12 2 6 2 18 0 25 -3 6 -5 1 -5 -13z"/>
<path d="M2868 438 c17 -17 17 -259 0 -277 -11 -10 -2 -12 45 -10 39 2 54 6
47 13 -13 13 -13 253 0 261 22 13 -3 25 -53 25 -40 0 -48 -3 -39 -12z m83 -12
c-8 -10 -11 -54 -9 -139 2 -69 0 -123 -4 -120 -13 8 -9 248 4 261 17 17 23 15
9 -2z"/>
<path d="M3303 432 c22 -24 24 -122 3 -122 -21 0 -30 -20 -16 -33 10 -9 11 -9
6 1 -4 7 -1 12 8 12 23 0 22 -97 -1 -122 -15 -17 -14 -18 35 -18 29 0 52 4 52
10 0 5 -6 9 -12 7 -9 -1 -14 17 -16 61 l-3 62 58 -2 58 -1 -50 -7 -50 -7 48
-1 47 -2 0 -42 c0 -24 -7 -49 -17 -60 -15 -17 -14 -18 43 -20 l59 -1 -55 -7
-55 -7 64 -1 c63 -2 64 -2 46 18 -9 10 -22 18 -29 17 -7 -1 -12 36 -14 122 -2
105 0 127 14 142 16 18 15 19 -36 19 -51 0 -52 -1 -37 -18 11 -12 17 -36 17
-65 l0 -47 -55 0 -55 0 0 47 c0 29 6 53 17 65 15 17 14 18 -37 18 -51 0 -52
-1 -37 -18z"/>
<path d="M3764 431 c-54 -33 -79 -127 -50 -194 43 -101 175 -116 222 -24 23
44 23 134 -1 174 -36 61 -111 81 -171 44z m111 -21 c40 -44 38 -181 -3 -222
-16 -16 -28 -19 -56 -14 -41 8 -54 26 -62 90 -8 58 1 107 27 140 25 32 68 35
94 6z"/>
<path d="M3797 402 c-10 -10 -17 -23 -17 -28 0 -4 7 2 16 15 12 17 24 22 45
19 15 -3 26 -1 23 4 -9 15 -51 8 -67 -10z"/>
<path d="M3772 335 c0 -16 2 -22 5 -12 2 9 2 23 0 30 -3 6 -5 -1 -5 -18z"/>
<path d="M3772 250 c0 -14 2 -19 5 -12 2 6 2 18 0 25 -3 6 -5 1 -5 -13z"/>
<path d="M4018 438 c17 -17 17 -259 0 -276 -9 -9 -1 -12 37 -12 38 0 46 3 37
12 -7 7 -12 31 -12 53 0 32 6 47 27 66 14 13 23 18 19 12 -4 -7 -2 -13 3 -13
6 0 22 -23 36 -51 21 -40 24 -54 14 -65 -10 -12 -3 -14 45 -14 33 0 56 4 56
11 0 5 -4 8 -8 5 -15 -9 -30 10 -71 92 l-42 84 27 35 c14 19 40 43 58 54 l31
19 -59 0 c-53 0 -58 -2 -41 -14 18 -13 18 -15 3 -37 -9 -13 -30 -40 -47 -59
l-30 -35 -1 56 c0 30 6 61 13 69 10 12 9 12 -5 1 -13 -9 -18 -31 -21 -84 l-3
-72 -2 76 c-1 47 2 79 10 87 9 9 1 12 -37 12 -38 0 -46 -3 -37 -12z"/>
<path d="M4439 436 c17 -21 -6 -99 -27 -91 -13 5 -13 3 -1 -12 12 -15 12 -16
-5 -10 -26 10 -40 -13 -18 -29 15 -11 14 -15 -3 -55 -11 -24 -31 -54 -44 -66
l-24 -23 52 0 c49 0 51 1 40 21 -11 22 -5 84 11 94 5 3 19 -8 31 -25 l23 -30
24 27 c15 18 22 22 18 10 -3 -11 -2 -16 4 -12 17 10 33 -47 20 -68 -10 -17 -6
-18 49 -16 l59 2 -16 23 c-9 12 -19 20 -21 18 -2 -2 2 -12 10 -21 12 -16 11
-17 -3 -3 -9 8 -26 39 -38 68 -20 52 -20 54 -1 59 12 3 17 11 14 24 -4 15 -9
17 -24 8 -15 -8 -21 -6 -26 8 -3 10 -12 33 -20 52 -10 25 -10 37 -2 47 9 12 2
14 -41 14 -44 0 -51 -2 -41 -14z m61 -114 c17 -44 0 -65 -31 -36 -12 10 -24
18 -28 17 -9 -4 -7 7 8 50 12 35 14 37 25 20 7 -10 18 -33 26 -51z m-20 -64
c0 -6 -7 -5 -15 2 -8 7 -15 17 -15 22 0 6 7 5 15 -2 8 -7 15 -17 15 -22z"/>
<path d="M4698 418 l16 -33 23 23 c18 18 32 22 75 21 l53 -2 -52 -6 c-29 -4
-58 -13 -65 -20 -11 -11 -9 -11 10 -2 13 7 38 11 58 9 l34 -3 -85 -127 -85
-128 130 0 130 0 -17 35 -16 34 -29 -24 c-23 -19 -41 -25 -79 -25 -37 0 -48 3
-43 13 4 6 42 64 84 127 42 63 80 121 84 128 6 9 -20 12 -117 12 l-124 0 15
-32z"/>
<path d="M5054 431 c-54 -33 -79 -127 -50 -194 43 -101 175 -116 222 -24 23
44 23 134 -1 174 -36 61 -111 81 -171 44z m111 -21 c40 -44 38 -181 -3 -222
-16 -16 -28 -19 -56 -14 -41 8 -54 26 -62 90 -8 58 1 107 27 140 25 32 68 35
94 6z"/>
<path d="M5087 402 c-10 -10 -17 -23 -17 -28 0 -4 7 2 16 15 12 17 24 22 45
19 15 -3 26 -1 23 4 -9 15 -51 8 -67 -10z"/>
<path d="M5062 335 c0 -16 2 -22 5 -12 2 9 2 23 0 30 -3 6 -5 -1 -5 -18z"/>
<path d="M5062 250 c0 -14 2 -19 5 -12 2 6 2 18 0 25 -3 6 -5 1 -5 -13z"/>
<path d="M124 398 c-14 -17 -15 -19 -2 -10 9 8 29 17 45 22 l28 8 -26 1 c-15
1 -34 -8 -45 -21z"/>
<path d="M3097 402 c-10 -10 -17 -23 -17 -28 0 -4 7 1 15 13 8 12 28 24 43 26
l27 4 -26 2 c-14 0 -33 -7 -42 -17z"/>
<path d="M4219 393 l-24 -28 28 24 c15 14 27 26 27 28 0 8 -8 1 -31 -24z"/>
<path d="M3225 379 c-4 -6 -5 -12 -2 -15 2 -3 7 2 10 11 7 17 1 20 -8 4z"/>
<path d="M3073 300 c0 -30 2 -43 4 -27 2 15 2 39 0 55 -2 15 -4 2 -4 -28z"/>
<path d="M93 300 c0 -25 2 -35 4 -22 2 12 2 32 0 45 -2 12 -4 2 -4 -23z"/>
<path d="M2823 295 c0 -22 2 -30 4 -17 2 12 2 30 0 40 -3 9 -5 -1 -4 -23z"/>
<path d="M3973 295 c0 -22 2 -30 4 -17 2 12 2 30 0 40 -3 9 -5 -1 -4 -23z"/>
<path d="M5263 295 c0 -22 2 -30 4 -17 2 12 2 30 0 40 -3 9 -5 -1 -4 -23z"/>
<path d="M1465 289 c-4 -6 -5 -12 -2 -15 2 -3 7 2 10 11 7 17 1 20 -8 4z"/>
<path d="M623 283 c9 -2 23 -2 30 0 6 3 -1 5 -18 5 -16 0 -22 -2 -12 -5z"/>
<path d="M1993 283 c9 -2 23 -2 30 0 6 3 -1 5 -18 5 -16 0 -22 -2 -12 -5z"/>
<path d="M4593 283 c9 -2 23 -2 30 0 6 3 -1 5 -18 5 -16 0 -22 -2 -12 -5z"/>
<path d="M4101 256 c-7 -8 -11 -32 -8 -53 l4 -38 1 41 c1 22 7 45 14 52 7 7 9
12 6 12 -3 0 -11 -6 -17 -14z"/>
<path d="M442 200 c0 -14 2 -19 5 -12 2 6 2 18 0 25 -3 6 -5 1 -5 -13z"/>
<path d="M1812 200 c0 -14 2 -19 5 -12 2 6 2 18 0 25 -3 6 -5 1 -5 -13z"/>
<path d="M4412 200 c0 -14 2 -19 5 -12 2 6 2 18 0 25 -3 6 -5 1 -5 -13z"/>
<path d="M2790 190 c-14 -25 -45 -42 -95 -51 l-40 -6 35 -2 c39 -1 93 27 110
58 6 12 8 21 6 21 -3 0 -10 -9 -16 -20z"/>
<path d="M3940 190 c-14 -25 -45 -42 -95 -51 l-40 -6 35 -2 c39 -1 93 27 110
58 6 12 8 21 6 21 -3 0 -10 -9 -16 -20z"/>
<path d="M5230 190 c-14 -25 -45 -42 -95 -51 l-40 -6 35 -2 c39 -1 93 27 110
58 6 12 8 21 6 21 -3 0 -10 -9 -16 -20z"/>
<path d="M2352 144 c-7 -8 -8 -14 -3 -14 10 0 25 19 20 25 -2 1 -10 -3 -17
-11z"/>
<path d="M1120 140 l-135 -6 132 -2 c79 -1 134 2 138 8 3 6 5 9 3 8 -2 -1 -64
-5 -138 -8z"/>
<path d="M168 133 c28 -2 76 -2 105 0 28 2 5 3 -53 3 -58 0 -81 -1 -52 -3z"/>
<path d="M388 133 c17 -2 47 -2 65 0 17 2 3 4 -33 4 -36 0 -50 -2 -32 -4z"/>
<path d="M597 133 c18 -2 50 -2 70 0 21 2 7 4 -32 4 -38 0 -55 -2 -38 -4z"/>
<path d="M783 133 c37 -2 96 -2 130 0 34 2 4 3 -68 3 -71 0 -99 -1 -62 -3z"/>
<path d="M1318 133 c17 -2 47 -2 65 0 17 2 3 4 -33 4 -36 0 -50 -2 -32 -4z"/>
<path d="M1608 133 c17 -2 47 -2 65 0 17 2 3 4 -33 4 -36 0 -50 -2 -32 -4z"/>
<path d="M1758 133 c17 -2 47 -2 65 0 17 2 3 4 -33 4 -36 0 -50 -2 -32 -4z"/>
<path d="M1967 133 c18 -2 50 -2 70 0 21 2 7 4 -32 4 -38 0 -55 -2 -38 -4z"/>
<path d="M2218 133 c18 -2 45 -2 60 0 15 2 0 4 -33 4 -33 0 -45 -2 -27 -4z"/>
<path d="M2888 133 c17 -2 47 -2 65 0 17 2 3 4 -33 4 -36 0 -50 -2 -32 -4z"/>
<path d="M3328 133 c17 -2 47 -2 65 0 17 2 3 4 -33 4 -36 0 -50 -2 -32 -4z"/>
<path d="M4038 133 c17 -2 47 -2 65 0 17 2 3 4 -33 4 -36 0 -50 -2 -32 -4z"/>
<path d="M4242 133 c37 -2 100 -2 140 0 40 1 10 3 -67 3 -77 0 -110 -1 -73 -3z"/>
<path d="M4567 133 c18 -2 50 -2 70 0 21 2 7 4 -32 4 -38 0 -55 -2 -38 -4z"/>
<path d="M4752 133 c37 -2 100 -2 140 0 40 1 10 3 -67 3 -77 0 -110 -1 -73 -3z"/>
<path d="M5378 133 c17 -2 47 -2 65 0 17 2 3 4 -33 4 -36 0 -50 -2 -32 -4z"/>
<path d="M5528 133 c18 -2 45 -2 60 0 15 2 0 4 -33 4 -33 0 -45 -2 -27 -4z"/>
</g>
</svg>
