<?xml version="1.0" standalone="no"?>
<!DOCTYPE svg PUBLIC "-//W3C//DTD SVG 20010904//EN"
 "http://www.w3.org/TR/2001/REC-SVG-20010904/DTD/svg10.dtd">
<svg version="1.0" xmlns="http://www.w3.org/2000/svg"
 width="736.000000pt" height="61.000000pt" viewBox="0 0 736.000000 61.000000"
 preserveAspectRatio="xMidYMid meet">

<g transform="translate(0.000000,61.000000) scale(0.100000,-0.100000)"
fill="#000000" stroke="none">
<path d="M2364 480 c-53 -21 -91 -109 -80 -184 8 -49 55 -116 83 -116 8 0 12
-4 9 -8 -5 -9 64 0 99 12 20 8 20 7 1 -8 -11 -9 -36 -17 -55 -17 -32 -2 -33
-2 -7 -6 36 -6 78 12 95 40 13 20 13 21 -2 8 -10 -8 -17 -9 -17 -3 0 6 5 14
10 17 6 3 10 21 9 38 l-1 32 -11 -33 c-6 -19 -21 -40 -33 -49 -27 -17 -80 -14
-76 5 1 8 -2 11 -7 7 -23 -13 -45 47 -45 121 0 81 21 126 63 132 30 5 69 -23
77 -55 7 -26 7 -26 25 12 11 21 18 39 16 40 -1 0 -23 6 -50 13 -54 14 -73 14
-103 2z"/>
<path d="M4564 480 c-53 -21 -91 -109 -80 -184 8 -49 55 -116 83 -116 8 0 12
-4 9 -8 -5 -9 64 0 99 12 20 8 20 7 1 -8 -11 -9 -36 -17 -55 -17 -32 -2 -33
-2 -7 -6 36 -6 78 12 95 40 13 20 13 21 -2 8 -10 -8 -17 -9 -17 -3 0 6 5 14
10 17 6 3 10 21 9 38 l-1 32 -11 -33 c-6 -19 -21 -40 -33 -49 -27 -17 -80 -14
-76 5 1 8 -2 11 -7 7 -23 -13 -45 47 -45 121 0 81 21 126 63 132 30 5 69 -23
77 -55 7 -26 7 -26 25 12 11 21 18 39 16 40 -1 0 -23 6 -50 13 -54 14 -73 14
-103 2z"/>
<path d="M28 468 c17 -17 17 -259 0 -276 -9 -9 -1 -12 37 -12 38 0 46 3 37 12
-7 7 -12 31 -12 53 0 32 6 47 27 66 14 13 23 18 19 12 -4 -7 -2 -13 3 -13 6 0
22 -23 36 -51 21 -40 24 -54 14 -65 -10 -12 -3 -14 45 -14 33 0 56 4 56 11 0
5 -4 8 -8 5 -15 -9 -30 10 -71 92 l-42 84 27 35 c14 19 40 43 58 54 l31 19
-59 0 c-53 0 -58 -2 -41 -14 18 -13 18 -15 3 -37 -9 -13 -30 -40 -47 -59 l-30
-35 -1 56 c0 30 6 61 13 69 10 12 9 12 -5 1 -13 -9 -18 -31 -21 -84 l-3 -72
-2 76 c-1 47 2 79 10 87 9 9 1 12 -37 12 -38 0 -46 -3 -37 -12z"/>
<path d="M449 466 c17 -21 -6 -99 -27 -91 -13 5 -13 3 -1 -12 12 -15 12 -16
-5 -10 -26 10 -40 -13 -18 -29 15 -11 14 -15 -3 -55 -11 -24 -31 -54 -44 -66
l-24 -23 52 0 c49 0 51 1 40 21 -11 22 -5 84 11 94 5 3 19 -8 31 -25 l23 -30
24 27 c15 18 22 22 18 10 -3 -11 -2 -16 4 -12 17 10 33 -47 20 -68 -10 -17 -6
-18 49 -16 l59 2 -16 23 c-9 12 -19 20 -21 18 -2 -2 2 -12 10 -21 12 -16 11
-17 -3 -3 -9 8 -26 39 -38 68 -20 52 -20 54 -1 59 12 3 17 11 14 24 -4 15 -9
17 -24 8 -15 -8 -21 -6 -26 8 -3 10 -12 33 -20 52 -10 25 -10 37 -2 47 9 12 2
14 -41 14 -44 0 -51 -2 -41 -14z m61 -114 c17 -44 0 -65 -31 -36 -12 10 -24
18 -28 17 -9 -4 -7 7 8 50 12 35 14 37 25 20 7 -10 18 -33 26 -51z m-20 -64
c0 -6 -7 -5 -15 2 -8 7 -15 17 -15 22 0 6 7 5 15 -2 8 -7 15 -17 15 -22z"/>
<path d="M718 468 c17 -17 16 -128 -2 -128 -7 0 -19 -6 -25 -14 -9 -11 -6 -12
16 -9 22 4 25 2 13 -6 -10 -7 -11 -11 -2 -11 20 0 16 -97 -5 -109 -14 -8 -5
-10 36 -11 43 0 52 3 43 12 -7 7 -12 38 -12 70 l0 58 43 0 c53 0 88 18 105 52
18 38 1 75 -43 93 -44 19 -185 21 -167 3z m147 -22 c20 -14 25 -70 9 -86 -5
-5 -24 -13 -42 -16 l-32 -6 0 45 c0 42 2 46 28 50 26 4 25 4 -5 6 -32 1 -32 0
-36 -51 l-3 -53 -2 63 -2 62 33 0 c18 0 42 -6 52 -14z"/>
<path d="M967 445 c16 -34 17 -34 27 -12 8 16 21 22 46 24 24 1 27 0 10 -4
-30 -6 -50 -21 -50 -37 0 -6 5 -3 11 7 5 9 21 17 34 17 l25 0 0 -112 c0 -91
-3 -115 -17 -130 -17 -19 -15 -19 40 -17 39 2 54 6 47 13 -6 6 -10 61 -10 129
l0 119 26 -5 c16 -3 22 -1 16 5 -6 6 -18 8 -28 6 -17 -3 -19 -15 -19 -130 0
-69 -3 -124 -7 -121 -5 2 -8 62 -8 134 l0 129 29 0 c19 0 35 -8 45 -21 14 -21
15 -21 30 10 l17 31 -141 0 -140 0 17 -35z"/>
<path d="M1263 469 c14 -8 17 -25 17 -114 0 -157 19 -190 111 -190 52 0 64 4
80 24 10 13 19 31 19 40 -1 9 -7 3 -16 -14 -8 -16 -11 -21 -8 -10 4 11 9 70
12 130 3 80 8 115 20 128 14 16 12 17 -34 17 -48 0 -48 0 -25 -16 23 -16 23
-20 19 -123 -3 -58 -9 -114 -13 -124 -9 -22 -50 -32 -84 -21 -26 9 -26 10 -29
133 -2 82 1 128 9 137 10 12 2 14 -42 14 -42 -1 -50 -3 -36 -11z"/>
<path d="M1591 466 c-22 -8 -31 -15 -23 -20 7 -4 12 -31 12 -65 0 -52 -3 -60
-22 -66 l-23 -8 24 -4 c19 -4 21 -7 10 -14 -10 -6 -10 -9 -1 -9 18 0 15 -60
-5 -82 -15 -17 -14 -18 32 -18 38 0 46 3 37 12 -13 13 -17 118 -4 118 4 0 16
3 28 6 25 7 49 -35 65 -119 l11 -55 32 17 c17 9 33 17 35 18 2 1 -9 16 -23 34
-26 31 -70 109 -64 113 2 1 15 10 30 19 113 71 -13 173 -151 123z m130 -27
c38 -38 4 -91 -68 -105 l-33 -6 0 66 0 66 40 0 c27 0 47 -7 61 -21z"/>
<path d="M1641 446 c2 -2 22 -6 44 -9 27 -4 35 -3 25 3 -14 9 -79 15 -69 6z"/>
<path d="M1858 468 c8 -8 12 -52 12 -133 0 -109 -2 -124 -20 -140 -32 -29 -24
-35 48 -33 l67 1 -65 7 c-63 6 -63 7 -16 8 46 2 48 3 30 16 -16 12 -19 29 -22
123 -2 59 0 105 4 100 4 -4 33 -58 65 -120 42 -83 63 -113 78 -115 20 -3 21 0
21 127 0 118 2 133 20 151 l20 20 -46 0 c-42 0 -44 -1 -29 -16 12 -13 15 -36
14 -116 -1 -113 1 -113 -65 15 -36 70 -43 92 -33 103 10 12 3 14 -42 14 -41 0
-50 -3 -41 -12z"/>
<path d="M2148 468 c17 -17 17 -259 0 -277 -11 -10 -2 -12 45 -10 39 2 54 6
47 13 -13 13 -13 253 0 261 22 13 -3 25 -53 25 -40 0 -48 -3 -39 -12z m83 -12
c-8 -10 -11 -54 -9 -139 2 -69 0 -123 -4 -120 -13 8 -9 248 4 261 17 17 23 15
9 -2z"/>
<path d="M2583 466 c12 -10 17 -27 17 -64 0 -42 -3 -52 -20 -57 -27 -9 -25
-24 3 -18 21 4 21 4 -3 -12 -23 -15 -24 -15 -2 -10 21 6 22 3 22 -46 0 -38 -5
-55 -17 -65 -15 -11 1 -13 109 -14 l127 0 -20 34 -20 34 -24 -24 c-15 -15 -36
-24 -55 -24 -30 0 -30 0 -30 54 0 49 2 55 23 59 19 4 19 4 -5 6 -26 1 -27 -1
-31 -61 l-3 -63 -2 68 c-2 66 -2 67 25 67 14 0 35 -7 45 -17 17 -15 18 -14 18
27 0 41 -1 42 -18 27 -34 -31 -52 -22 -52 27 0 43 1 45 33 49 32 4 32 4 -5 5
l-37 2 -4 -52 -3 -53 -2 58 -2 57 40 0 c27 0 47 -7 61 -21 11 -11 22 -19 23
-17 1 2 10 15 19 31 l17 27 -122 0 c-104 -1 -120 -3 -105 -14z"/>
<path d="M2998 468 c17 -17 17 -259 0 -276 -9 -9 -1 -12 37 -12 38 0 46 3 37
12 -7 7 -12 31 -12 53 0 32 6 47 27 66 14 13 23 18 19 12 -4 -7 -2 -13 3 -13
6 0 22 -23 36 -51 21 -40 24 -54 14 -65 -10 -12 -3 -14 45 -14 33 0 56 4 56
11 0 5 -4 8 -8 5 -15 -9 -30 10 -71 92 l-42 84 27 35 c14 19 40 43 58 54 l31
19 -59 0 c-53 0 -58 -2 -41 -14 18 -13 18 -15 3 -37 -9 -13 -30 -40 -47 -59
l-30 -35 -1 56 c0 30 6 61 13 69 10 12 9 12 -5 1 -13 -9 -18 -31 -21 -84 l-3
-72 -2 76 c-1 47 2 79 10 87 9 9 1 12 -37 12 -38 0 -46 -3 -37 -12z"/>
<path d="M3364 461 c-54 -33 -79 -127 -50 -194 43 -101 175 -116 222 -24 23
44 23 134 -1 174 -36 61 -111 81 -171 44z m111 -21 c40 -44 38 -181 -3 -222
-16 -16 -28 -19 -56 -14 -41 8 -54 26 -62 90 -8 58 1 107 27 140 25 32 68 35
94 6z"/>
<path d="M3397 432 c-10 -10 -17 -23 -17 -28 0 -4 7 2 16 15 12 17 24 22 45
19 15 -3 26 -1 23 4 -9 15 -51 8 -67 -10z"/>
<path d="M3372 365 c0 -16 2 -22 5 -12 2 9 2 23 0 30 -3 6 -5 -1 -5 -18z"/>
<path d="M3372 280 c0 -14 2 -19 5 -12 2 6 2 18 0 25 -3 6 -5 1 -5 -13z"/>
<path d="M3618 468 c17 -17 17 -259 0 -276 -9 -9 14 -12 105 -12 l116 0 -17
33 c-9 17 -18 33 -18 35 -1 2 -13 -8 -27 -22 -15 -14 -38 -26 -52 -26 l-25 0
0 124 c0 74 4 127 10 131 22 13 -3 25 -53 25 -40 0 -48 -3 -39 -12z m84 -11
c-7 -8 -13 -67 -15 -138 l-3 -124 -2 131 c-1 72 1 134 5 137 12 13 26 7 15 -6z"/>
<path d="M3883 466 c12 -10 17 -27 17 -64 0 -42 -3 -52 -20 -57 -27 -9 -25
-24 3 -18 21 4 21 4 -3 -12 -23 -15 -24 -15 -2 -10 21 6 22 4 22 -48 0 -55
-16 -77 -42 -60 -7 3 -8 1 -4 -5 5 -8 49 -12 136 -12 l129 0 -20 34 -20 34
-24 -24 c-15 -15 -36 -24 -55 -24 -30 0 -30 0 -30 54 0 49 2 55 23 59 19 4 19
4 -5 6 -26 1 -27 -1 -31 -61 l-3 -63 -2 68 c-2 66 -2 67 25 67 14 0 35 -7 45
-17 17 -15 18 -14 18 27 0 41 -1 42 -18 27 -34 -31 -52 -22 -52 27 0 43 1 45
33 49 32 4 32 4 -5 5 l-37 2 -4 -52 -3 -53 -2 58 -2 57 40 0 c27 0 47 -7 61
-21 11 -11 22 -19 23 -17 1 2 10 15 19 31 l17 27 -122 0 c-104 -1 -120 -3
-105 -14z"/>
<path d="M4178 468 c17 -17 17 -259 0 -276 -9 -9 -1 -12 37 -12 38 0 46 3 37
12 -7 7 -12 31 -12 53 0 32 6 47 27 66 14 13 23 18 19 12 -4 -7 -2 -13 3 -13
6 0 22 -23 36 -51 21 -40 24 -54 14 -65 -10 -12 -3 -14 45 -14 33 0 56 4 56
11 0 5 -4 8 -8 5 -15 -9 -30 10 -71 92 l-42 84 27 35 c14 19 40 43 58 54 l31
19 -59 0 c-53 0 -58 -2 -41 -14 18 -13 18 -15 3 -37 -9 -13 -30 -40 -47 -59
l-30 -35 -1 56 c0 30 6 61 13 69 10 12 9 12 -5 1 -13 -9 -18 -31 -21 -84 l-3
-72 -2 76 c-1 47 2 79 10 87 9 9 1 12 -37 12 -38 0 -46 -3 -37 -12z"/>
<path d="M4883 462 c14 -15 17 -40 17 -126 0 -112 -9 -146 -38 -146 -32 0 -46
18 -51 64 l-6 46 -28 -23 -28 -22 27 -42 c15 -23 31 -40 36 -37 4 3 8 0 8 -7
0 -16 97 -6 113 11 10 10 9 11 -3 5 -12 -6 -12 -4 1 9 14 15 15 36 11 132 -4
100 -3 117 13 134 18 20 17 20 -35 20 -51 0 -52 -1 -37 -18z"/>
<path d="M5074 461 c-54 -33 -79 -127 -50 -194 43 -101 175 -116 222 -24 23
44 23 134 -1 174 -36 61 -111 81 -171 44z m111 -21 c40 -44 38 -181 -3 -222
-16 -16 -28 -19 -56 -14 -41 8 -54 26 -62 90 -8 58 1 107 27 140 25 32 68 35
94 6z"/>
<path d="M5107 432 c-10 -10 -17 -23 -17 -28 0 -4 7 2 16 15 12 17 24 22 45
19 15 -3 26 -1 23 4 -9 15 -51 8 -67 -10z"/>
<path d="M5082 365 c0 -16 2 -22 5 -12 2 9 2 23 0 30 -3 6 -5 -1 -5 -18z"/>
<path d="M5082 280 c0 -14 2 -19 5 -12 2 6 2 18 0 25 -3 6 -5 1 -5 -13z"/>
<path d="M5328 468 c8 -8 12 -52 12 -132 0 -97 -3 -123 -17 -138 -15 -17 -14
-18 32 -18 45 0 47 1 29 14 -16 12 -19 29 -22 123 -2 59 0 105 4 100 4 -4 33
-58 65 -120 42 -83 63 -113 78 -115 20 -3 21 0 21 127 0 118 2 133 20 151 l20
20 -46 0 c-42 0 -44 -1 -29 -16 12 -13 15 -36 14 -116 -1 -113 1 -113 -65 15
-36 70 -43 92 -33 103 10 12 3 14 -42 14 -41 0 -50 -3 -41 -12z"/>
<path d="M5623 466 c12 -10 17 -27 17 -64 0 -42 -3 -52 -20 -57 -27 -9 -25
-24 3 -18 21 4 21 4 -3 -12 -23 -15 -24 -15 -2 -10 21 6 22 3 22 -46 0 -38 -5
-55 -17 -65 -15 -11 1 -13 109 -14 l127 0 -20 34 -20 34 -24 -24 c-15 -15 -36
-24 -55 -24 -30 0 -30 0 -30 54 0 49 2 55 23 59 19 4 19 4 -5 6 -26 1 -27 -1
-31 -61 l-3 -63 -2 68 c-2 66 -2 67 25 67 14 0 35 -7 45 -17 17 -15 18 -14 18
27 0 41 -1 42 -18 27 -34 -31 -52 -22 -52 27 0 43 1 45 33 49 32 4 32 4 -5 5
l-37 2 -4 -52 -3 -53 -2 58 -2 57 40 0 c27 0 47 -7 61 -21 11 -11 22 -19 23
-17 1 2 10 15 19 31 l17 27 -122 0 c-104 -1 -120 -3 -105 -14z"/>
<path d="M5951 466 c-22 -8 -31 -15 -23 -20 7 -4 12 -31 12 -65 0 -52 -3 -60
-22 -66 l-23 -8 24 -4 c19 -4 21 -7 10 -14 -10 -6 -10 -9 -1 -9 18 0 15 -60
-5 -82 -15 -17 -14 -18 32 -18 38 0 46 3 37 12 -13 13 -17 118 -4 118 4 0 16
3 28 6 25 7 49 -35 65 -119 l11 -55 32 17 c17 9 33 17 35 18 2 1 -9 16 -23 34
-26 31 -70 109 -64 113 2 1 15 10 30 19 113 71 -13 173 -151 123z m130 -27
c38 -38 4 -91 -68 -105 l-33 -6 0 66 0 66 40 0 c27 0 47 -7 61 -21z"/>
<path d="M6001 446 c2 -2 22 -6 44 -9 27 -4 35 -3 25 3 -14 9 -79 15 -69 6z"/>
<path d="M6255 469 c-32 -18 -45 -40 -45 -74 0 -17 6 -37 13 -44 6 -6 12 -17
12 -24 0 -7 8 -11 18 -9 10 2 42 -4 72 -13 50 -14 75 -36 75 -64 0 -21 -41
-51 -69 -51 -37 0 -62 9 -56 20 3 5 0 12 -6 16 -8 4 -9 3 -5 -4 4 -7 3 -12 -2
-12 -5 0 -14 12 -21 27 l-12 27 -23 -40 c-13 -21 -20 -43 -15 -48 4 -4 26 -7
48 -4 23 2 41 0 41 -4 0 -11 74 -10 103 1 27 10 67 49 67 64 0 5 -8 1 -17 -10
-10 -10 -15 -14 -10 -9 4 6 7 26 7 46 0 47 -28 73 -101 94 -31 9 -62 22 -68
30 -16 19 -11 58 8 64 9 3 11 0 6 -8 -5 -9 -4 -11 4 -6 6 4 8 12 5 18 -4 6 2
8 17 3 36 -10 69 -27 69 -37 0 -4 4 -8 8 -8 9 0 35 50 30 56 -11 10 -136 13
-153 3z m-17 -286 c-10 -2 -26 -2 -35 0 -10 3 -2 5 17 5 19 0 27 -2 18 -5z"/>
<path d="M6488 468 c8 -8 12 -53 12 -138 0 -85 -4 -130 -12 -138 -9 -9 -1 -12
37 -12 38 0 46 3 37 12 -7 7 -12 31 -12 53 0 32 6 47 27 66 14 13 23 18 19 12
-4 -7 -2 -13 3 -13 6 0 22 -23 36 -51 21 -40 24 -54 14 -65 -10 -12 -3 -14 45
-14 33 0 56 4 56 11 0 5 -4 8 -8 5 -15 -9 -30 10 -71 92 l-42 84 27 35 c14 19
40 43 58 54 l31 19 -59 0 c-53 0 -58 -2 -41 -14 18 -13 18 -15 3 -37 -9 -13
-30 -40 -47 -59 l-30 -35 -1 56 c0 30 6 61 13 69 10 12 9 12 -5 1 -13 -9 -18
-31 -21 -84 l-3 -72 -2 76 c-1 47 2 79 10 87 9 9 1 12 -37 12 -38 0 -46 -3
-37 -12z"/>
<path d="M6808 468 c17 -17 17 -259 0 -277 -11 -10 -2 -12 45 -10 39 2 54 6
47 13 -13 13 -13 253 0 261 22 13 -3 25 -53 25 -40 0 -48 -3 -39 -12z m83 -12
c-8 -10 -11 -54 -9 -139 2 -69 0 -123 -4 -120 -13 8 -9 248 4 261 17 17 23 15
9 -2z"/>
<path d="M6963 466 c12 -10 17 -27 17 -64 0 -42 -3 -52 -20 -57 -27 -9 -25
-24 3 -18 21 4 21 4 -3 -12 -23 -15 -24 -15 -2 -10 21 6 22 3 22 -46 0 -38 -5
-55 -17 -65 -15 -11 1 -13 109 -14 l127 0 -20 34 -20 34 -24 -24 c-15 -15 -36
-24 -55 -24 -30 0 -30 0 -30 54 0 49 2 55 23 59 19 4 19 4 -5 6 -26 1 -27 -1
-31 -61 l-3 -63 -2 68 c-2 66 -2 67 25 67 14 0 35 -7 45 -17 17 -15 18 -14 18
27 0 41 -1 42 -18 27 -34 -31 -52 -22 -52 27 0 43 1 45 33 49 32 4 32 4 -5 5
l-37 2 -4 -52 -3 -53 -2 58 -2 57 40 0 c27 0 47 -7 61 -21 11 -11 22 -19 23
-17 1 2 10 15 19 31 l17 27 -122 0 c-104 -1 -120 -3 -105 -14z"/>
<path d="M229 423 l-24 -28 28 24 c25 23 32 31 24 31 -2 0 -14 -12 -28 -27z"/>
<path d="M2377 432 c-10 -10 -17 -23 -17 -28 0 -4 7 1 15 13 8 12 28 24 43 26
l27 4 -26 2 c-14 0 -33 -7 -42 -17z"/>
<path d="M3199 423 l-24 -28 28 24 c15 14 27 26 27 28 0 8 -8 1 -31 -24z"/>
<path d="M4379 423 l-24 -28 28 24 c15 14 27 26 27 28 0 8 -8 1 -31 -24z"/>
<path d="M4577 432 c-10 -10 -17 -23 -17 -28 0 -4 7 1 15 13 8 12 28 24 43 26
l27 4 -26 2 c-14 0 -33 -7 -42 -17z"/>
<path d="M6689 423 l-24 -28 28 24 c25 23 32 31 24 31 -2 0 -14 -12 -28 -27z"/>
<path d="M2505 409 c-4 -6 -5 -12 -2 -15 2 -3 7 2 10 11 7 17 1 20 -8 4z"/>
<path d="M4705 409 c-4 -6 -5 -12 -2 -15 2 -3 7 2 10 11 7 17 1 20 -8 4z"/>
<path d="M2353 330 c0 -30 2 -43 4 -27 2 15 2 39 0 55 -2 15 -4 2 -4 -28z"/>
<path d="M4553 330 c0 -30 2 -43 4 -27 2 15 2 39 0 55 -2 15 -4 2 -4 -28z"/>
<path d="M3573 325 c0 -22 2 -30 4 -17 2 12 2 30 0 40 -3 9 -5 -1 -4 -23z"/>
<path d="M5283 325 c0 -22 2 -30 4 -17 2 12 2 30 0 40 -3 9 -5 -1 -4 -23z"/>
<path d="M910 325 c-14 -8 -20 -14 -14 -15 5 0 19 7 30 15 24 18 16 19 -16 0z"/>
<path d="M1735 319 c-4 -6 -5 -12 -2 -15 2 -3 7 2 10 11 7 17 1 20 -8 4z"/>
<path d="M6095 319 c-4 -6 -5 -12 -2 -15 2 -3 7 2 10 11 7 17 1 20 -8 4z"/>
<path d="M603 313 c9 -2 23 -2 30 0 6 3 -1 5 -18 5 -16 0 -22 -2 -12 -5z"/>
<path d="M792 253 l2 -58 3 52 4 52 42 4 42 4 -47 1 -48 2 2 -57z"/>
<path d="M6268 303 c7 -3 16 -2 19 1 4 3 -2 6 -13 5 -11 0 -14 -3 -6 -6z"/>
<path d="M111 286 c-7 -8 -11 -32 -8 -53 l4 -38 1 41 c1 22 7 45 14 52 7 7 9
12 6 12 -3 0 -11 -6 -17 -14z"/>
<path d="M3081 286 c-7 -8 -11 -32 -8 -53 l4 -38 1 41 c1 22 7 45 14 52 7 7 9
12 6 12 -3 0 -11 -6 -17 -14z"/>
<path d="M4261 286 c-7 -8 -11 -32 -8 -53 l4 -38 1 41 c1 22 7 45 14 52 7 7 9
12 6 12 -3 0 -11 -6 -17 -14z"/>
<path d="M6308 293 c7 -3 16 -2 19 1 4 3 -2 6 -13 5 -11 0 -14 -3 -6 -6z"/>
<path d="M6571 286 c-7 -8 -11 -32 -8 -53 l4 -38 1 41 c1 22 7 45 14 52 7 7 9
12 6 12 -3 0 -11 -6 -17 -14z"/>
<path d="M4822 265 c0 -16 2 -22 5 -12 2 9 2 23 0 30 -3 6 -5 -1 -5 -18z"/>
<path d="M422 230 c0 -14 2 -19 5 -12 2 6 2 18 0 25 -3 6 -5 1 -5 -13z"/>
<path d="M4966 237 c3 -10 9 -15 12 -12 3 3 0 11 -7 18 -10 9 -11 8 -5 -6z"/>
<path d="M3540 220 c-14 -25 -45 -42 -95 -51 l-40 -6 35 -2 c39 -1 93 27 110
58 6 12 8 21 6 21 -3 0 -10 -9 -16 -20z"/>
<path d="M5250 220 c-14 -25 -45 -42 -95 -51 l-40 -6 35 -2 c39 -1 93 27 110
58 6 12 8 21 6 21 -3 0 -10 -9 -16 -20z"/>
<path d="M2710 170 l-135 -6 132 -2 c79 -1 134 2 138 8 3 6 5 9 3 8 -2 -1 -64
-5 -138 -8z"/>
<path d="M4010 170 l-135 -6 132 -2 c79 -1 134 2 138 8 3 6 5 9 3 8 -2 -1 -64
-5 -138 -8z"/>
<path d="M5750 170 l-135 -6 132 -2 c79 -1 134 2 138 8 3 6 5 9 3 8 -2 -1 -64
-5 -138 -8z"/>
<path d="M7090 170 l-135 -6 132 -2 c79 -1 134 2 138 8 3 6 5 9 3 8 -2 -1 -64
-5 -138 -8z"/>
<path d="M48 163 c17 -2 47 -2 65 0 17 2 3 4 -33 4 -36 0 -50 -2 -32 -4z"/>
<path d="M252 163 c37 -2 100 -2 140 0 40 1 10 3 -67 3 -77 0 -110 -1 -73 -3z"/>
<path d="M577 163 c18 -2 50 -2 70 0 21 2 7 4 -32 4 -38 0 -55 -2 -38 -4z"/>
<path d="M738 163 c17 -2 47 -2 65 0 17 2 3 4 -33 4 -36 0 -50 -2 -32 -4z"/>
<path d="M1078 163 c18 -2 45 -2 60 0 15 2 0 4 -33 4 -33 0 -45 -2 -27 -4z"/>
<path d="M1588 163 c17 -2 47 -2 65 0 17 2 3 4 -33 4 -36 0 -50 -2 -32 -4z"/>
<path d="M2043 163 c9 -2 23 -2 30 0 6 3 -1 5 -18 5 -16 0 -22 -2 -12 -5z"/>
<path d="M2168 163 c17 -2 47 -2 65 0 17 2 3 4 -33 4 -36 0 -50 -2 -32 -4z"/>
<path d="M3018 163 c17 -2 47 -2 65 0 17 2 3 4 -33 4 -36 0 -50 -2 -32 -4z"/>
<path d="M3193 163 c20 -2 54 -2 75 0 20 2 3 4 -38 4 -41 0 -58 -2 -37 -4z"/>
<path d="M3673 163 c37 -2 96 -2 130 0 34 2 4 3 -68 3 -71 0 -99 -1 -62 -3z"/>
<path d="M4198 163 c17 -2 47 -2 65 0 17 2 3 4 -33 4 -36 0 -50 -2 -32 -4z"/>
<path d="M4373 163 c20 -2 54 -2 75 0 20 2 3 4 -38 4 -41 0 -58 -2 -37 -4z"/>
<path d="M5327 163 c18 -2 50 -2 70 0 21 2 7 4 -32 4 -38 0 -55 -2 -38 -4z"/>
<path d="M5513 163 c9 -2 23 -2 30 0 6 3 -1 5 -18 5 -16 0 -22 -2 -12 -5z"/>
<path d="M5948 163 c17 -2 47 -2 65 0 17 2 3 4 -33 4 -36 0 -50 -2 -32 -4z"/>
<path d="M6508 163 c17 -2 47 -2 65 0 17 2 3 4 -33 4 -36 0 -50 -2 -32 -4z"/>
<path d="M6683 163 c20 -2 54 -2 75 0 20 2 3 4 -38 4 -41 0 -58 -2 -37 -4z"/>
<path d="M6828 163 c17 -2 47 -2 65 0 17 2 3 4 -33 4 -36 0 -50 -2 -32 -4z"/>
</g>
</svg>
